# planked-chests shulker_box, exported from datagen
# 1 unit = 1 block; Minecraft axes (Y up, north -Z)
mtllib shulker_box.mtl

o base
usemtl texture
vn 0 -1 0
v 0.000000 0.000000 1.000000
vt 0.500000 0.312500
v 0.000000 0.000000 0.000000
vt 0.500000 0.562500
v 1.000000 0.000000 0.000000
vt 0.750000 0.562500
v 1.000000 0.000000 1.000000
vt 0.750000 0.312500
f 1/1/1 2/2/1 3/3/1 4/4/1
vn 1 0 0
v 1.000000 0.500000 1.000000
vt 0.750000 0.312500
v 1.000000 0.000000 1.000000
vt 0.750000 0.187500
v 1.000000 0.000000 0.000000
vt 0.500000 0.187500
v 1.000000 0.500000 0.000000
vt 0.500000 0.312500
f 5/5/2 6/6/2 7/7/2 8/8/2
vn 0 0 -1
v 1.000000 0.500000 0.000000
vt 0.500000 0.312500
v 1.000000 0.000000 0.000000
vt 0.500000 0.187500
v 0.000000 0.000000 0.000000
vt 0.250000 0.187500
v 0.000000 0.500000 0.000000
vt 0.250000 0.312500
f 9/9/3 10/10/3 11/11/3 12/12/3
vn 0 0 1
v 0.000000 0.500000 1.000000
vt 1.000000 0.312500
v 0.000000 0.000000 1.000000
vt 1.000000 0.187500
v 1.000000 0.000000 1.000000
vt 0.750000 0.187500
v 1.000000 0.500000 1.000000
vt 0.750000 0.312500
f 13/13/4 14/14/4 15/15/4 16/16/4
vn 0 1 0
v 0.000000 0.500000 0.000000
vt 0.250000 0.562500
v 0.000000 0.500000 1.000000
vt 0.250000 0.312500
v 1.000000 0.500000 1.000000
vt 0.500000 0.312500
v 1.000000 0.500000 0.000000
vt 0.500000 0.562500
f 17/17/5 18/18/5 19/19/5 20/20/5
vn -1 0 0
v 0.000000 0.500000 0.000000
vt 0.250000 0.312500
v 0.000000 0.000000 0.000000
vt 0.250000 0.187500
v 0.000000 0.000000 1.000000
vt 0.000000 0.187500
v 0.000000 0.500000 1.000000
vt 0.000000 0.312500
f 21/21/6 22/22/6 23/23/6 24/24/6

o base_inside
usemtl texture
vn 0 -1 0
v 1.000000 0.500000 0.000000
vt 0.500000 0.562500
v 1.000000 0.500000 1.000000
vt 0.500000 0.312500
v 0.000000 0.500000 1.000000
vt 0.250000 0.312500
v 0.000000 0.500000 0.000000
vt 0.250000 0.562500
f 25/25/7 26/26/7 27/27/7 28/28/7
vn 1 0 0
v 0.000000 0.000000 0.000000
vt 0.250000 0.187500
v 0.000000 0.500000 0.000000
vt 0.250000 0.312500
v 0.000000 0.500000 1.000000
vt 0.000000 0.312500
v 0.000000 0.000000 1.000000
vt 0.000000 0.187500
f 29/29/8 30/30/8 31/31/8 32/32/8
vn 0 0 -1
v 0.000000 0.000000 1.000000
vt 1.000000 0.187500
v 0.000000 0.500000 1.000000
vt 1.000000 0.312500
v 1.000000 0.500000 1.000000
vt 0.750000 0.312500
v 1.000000 0.000000 1.000000
vt 0.750000 0.187500
f 33/33/9 34/34/9 35/35/9 36/36/9
vn 0 0 1
v 1.000000 0.000000 0.000000
vt 0.500000 0.187500
v 1.000000 0.500000 0.000000
vt 0.500000 0.312500
v 0.000000 0.500000 0.000000
vt 0.250000 0.312500
v 0.000000 0.000000 0.000000
vt 0.250000 0.187500
f 37/37/10 38/38/10 39/39/10 40/40/10
vn 0 1 0
v 1.000000 0.000000 1.000000
vt 0.750000 0.312500
v 1.000000 0.000000 0.000000
vt 0.750000 0.562500
v 0.000000 0.000000 0.000000
vt 0.500000 0.562500
v 0.000000 0.000000 1.000000
vt 0.500000 0.312500
f 41/41/11 42/42/11 43/43/11 44/44/11
vn -1 0 0
v 1.000000 0.000000 1.000000
vt 0.750000 0.187500
v 1.000000 0.500000 1.000000
vt 0.750000 0.312500
v 1.000000 0.500000 0.000000
vt 0.500000 0.312500
v 1.000000 0.000000 0.000000
vt 0.500000 0.187500
f 45/45/12 46/46/12 47/47/12 48/48/12

o lid
usemtl texture
vn 0 -1 0
v 0.000000 0.250000 1.000000
vt 0.500000 0.750000
v 0.000000 0.250000 0.000000
vt 0.500000 1.000000
v 1.000000 0.250000 0.000000
vt 0.750000 1.000000
v 1.000000 0.250000 1.000000
vt 0.750000 0.750000
f 49/49/13 50/50/13 51/51/13 52/52/13
vn 1 0 0
v 1.000000 1.000000 1.000000
vt 0.750000 0.750000
v 1.000000 0.250000 1.000000
vt 0.750000 0.562500
v 1.000000 0.250000 0.000000
vt 0.500000 0.562500
v 1.000000 1.000000 0.000000
vt 0.500000 0.750000
f 53/53/14 54/54/14 55/55/14 56/56/14
vn 0 0 -1
v 1.000000 1.000000 0.000000
vt 0.500000 0.750000
v 1.000000 0.250000 0.000000
vt 0.500000 0.562500
v 0.000000 0.250000 0.000000
vt 0.250000 0.562500
v 0.000000 1.000000 0.000000
vt 0.250000 0.750000
f 57/57/15 58/58/15 59/59/15 60/60/15
vn 0 0 1
v 0.000000 1.000000 1.000000
vt 1.000000 0.750000
v 0.000000 0.250000 1.000000
vt 1.000000 0.562500
v 1.000000 0.250000 1.000000
vt 0.750000 0.562500
v 1.000000 1.000000 1.000000
vt 0.750000 0.750000
f 61/61/16 62/62/16 63/63/16 64/64/16
vn 0 1 0
v 0.000000 1.000000 0.000000
vt 0.250000 1.000000
v 0.000000 1.000000 1.000000
vt 0.250000 0.750000
v 1.000000 1.000000 1.000000
vt 0.500000 0.750000
v 1.000000 1.000000 0.000000
vt 0.500000 1.000000
f 65/65/17 66/66/17 67/67/17 68/68/17
vn -1 0 0
v 0.000000 1.000000 0.000000
vt 0.250000 0.750000
v 0.000000 0.250000 0.000000
vt 0.250000 0.562500
v 0.000000 0.250000 1.000000
vt 0.000000 0.562500
v 0.000000 1.000000 1.000000
vt 0.000000 0.750000
f 69/69/18 70/70/18 71/71/18 72/72/18

o lid_inside
usemtl texture
vn 0 -1 0
v 1.000000 1.000000 0.000000
vt 0.500000 1.000000
v 1.000000 1.000000 1.000000
vt 0.500000 0.750000
v 0.000000 1.000000 1.000000
vt 0.250000 0.750000
v 0.000000 1.000000 0.000000
vt 0.250000 1.000000
f 73/73/19 74/74/19 75/75/19 76/76/19
vn 1 0 0
v 0.000000 0.250000 0.000000
vt 0.250000 0.562500
v 0.000000 1.000000 0.000000
vt 0.250000 0.750000
v 0.000000 1.000000 1.000000
vt 0.000000 0.750000
v 0.000000 0.250000 1.000000
vt 0.000000 0.562500
f 77/77/20 78/78/20 79/79/20 80/80/20
vn 0 0 -1
v 0.000000 0.250000 1.000000
vt 1.000000 0.562500
v 0.000000 1.000000 1.000000
vt 1.000000 0.750000
v 1.000000 1.000000 1.000000
vt 0.750000 0.750000
v 1.000000 0.250000 1.000000
vt 0.750000 0.562500
f 81/81/21 82/82/21 83/83/21 84/84/21
vn 0 0 1
v 1.000000 0.250000 0.000000
vt 0.500000 0.562500
v 1.000000 1.000000 0.000000
vt 0.500000 0.750000
v 0.000000 1.000000 0.000000
vt 0.250000 0.750000
v 0.000000 0.250000 0.000000
vt 0.250000 0.562500
f 85/85/22 86/86/22 87/87/22 88/88/22
vn 0 1 0
v 1.000000 0.250000 1.000000
vt 0.750000 0.750000
v 1.000000 0.250000 0.000000
vt 0.750000 1.000000
v 0.000000 0.250000 0.000000
vt 0.500000 1.000000
v 0.000000 0.250000 1.000000
vt 0.500000 0.750000
f 89/89/23 90/90/23 91/91/23 92/92/23
vn -1 0 0
v 1.000000 0.250000 1.000000
vt 0.750000 0.562500
v 1.000000 1.000000 1.000000
vt 0.750000 0.750000
v 1.000000 1.000000 0.000000
vt 0.500000 0.750000
v 1.000000 0.250000 0.000000
vt 0.500000 0.562500
f 93/93/24 94/94/24 95/95/24 96/96/24
