# planked-chests shulker_lid, exported from datagen
# 1 unit = 1 block; Minecraft axes (Y up, north -Z)
mtllib shulker_lid.mtl

o lid
usemtl texture
vn 0 -1 0
v 0.000000 0.250000 1.000000
vt 0.500000 0.750000
v 0.000000 0.250000 0.000000
vt 0.500000 1.000000
v 1.000000 0.250000 0.000000
vt 0.750000 1.000000
v 1.000000 0.250000 1.000000
vt 0.750000 0.750000
f 1/1/1 2/2/1 3/3/1 4/4/1
vn 1 0 0
v 1.000000 1.000000 1.000000
vt 0.750000 0.750000
v 1.000000 0.250000 1.000000
vt 0.750000 0.562500
v 1.000000 0.250000 0.000000
vt 0.500000 0.562500
v 1.000000 1.000000 0.000000
vt 0.500000 0.750000
f 5/5/2 6/6/2 7/7/2 8/8/2
vn 0 0 -1
v 1.000000 1.000000 0.000000
vt 0.500000 0.750000
v 1.000000 0.250000 0.000000
vt 0.500000 0.562500
v 0.000000 0.250000 0.000000
vt 0.250000 0.562500
v 0.000000 1.000000 0.000000
vt 0.250000 0.750000
f 9/9/3 10/10/3 11/11/3 12/12/3
vn 0 0 1
v 0.000000 1.000000 1.000000
vt 1.000000 0.750000
v 0.000000 0.250000 1.000000
vt 1.000000 0.562500
v 1.000000 0.250000 1.000000
vt 0.750000 0.562500
v 1.000000 1.000000 1.000000
vt 0.750000 0.750000
f 13/13/4 14/14/4 15/15/4 16/16/4
vn 0 1 0
v 0.000000 1.000000 0.000000
vt 0.250000 1.000000
v 0.000000 1.000000 1.000000
vt 0.250000 0.750000
v 1.000000 1.000000 1.000000
vt 0.500000 0.750000
v 1.000000 1.000000 0.000000
vt 0.500000 1.000000
f 17/17/5 18/18/5 19/19/5 20/20/5
vn -1 0 0
v 0.000000 1.000000 0.000000
vt 0.250000 0.750000
v 0.000000 0.250000 0.000000
vt 0.250000 0.562500
v 0.000000 0.250000 1.000000
vt 0.000000 0.562500
v 0.000000 1.000000 1.000000
vt 0.000000 0.750000
f 21/21/6 22/22/6 23/23/6 24/24/6

o lid_inside
usemtl texture
vn 0 -1 0
v 1.000000 1.000000 0.000000
vt 0.500000 1.000000
v 1.000000 1.000000 1.000000
vt 0.500000 0.750000
v 0.000000 1.000000 1.000000
vt 0.250000 0.750000
v 0.000000 1.000000 0.000000
vt 0.250000 1.000000
f 25/25/7 26/26/7 27/27/7 28/28/7
vn 1 0 0
v 0.000000 0.250000 0.000000
vt 0.250000 0.562500
v 0.000000 1.000000 0.000000
vt 0.250000 0.750000
v 0.000000 1.000000 1.000000
vt 0.000000 0.750000
v 0.000000 0.250000 1.000000
vt 0.000000 0.562500
f 29/29/8 30/30/8 31/31/8 32/32/8
vn 0 0 -1
v 0.000000 0.250000 1.000000
vt 1.000000 0.562500
v 0.000000 1.000000 1.000000
vt 1.000000 0.750000
v 1.000000 1.000000 1.000000
vt 0.750000 0.750000
v 1.000000 0.250000 1.000000
vt 0.750000 0.562500
f 33/33/9 34/34/9 35/35/9 36/36/9
vn 0 0 1
v 1.000000 0.250000 0.000000
vt 0.500000 0.562500
v 1.000000 1.000000 0.000000
vt 0.500000 0.750000
v 0.000000 1.000000 0.000000
vt 0.250000 0.750000
v 0.000000 0.250000 0.000000
vt 0.250000 0.562500
f 37/37/10 38/38/10 39/39/10 40/40/10
vn 0 1 0
v 1.000000 0.250000 1.000000
vt 0.750000 0.750000
v 1.000000 0.250000 0.000000
vt 0.750000 1.000000
v 0.000000 0.250000 0.000000
vt 0.500000 1.000000
v 0.000000 0.250000 1.000000
vt 0.500000 0.750000
f 41/41/11 42/42/11 43/43/11 44/44/11
vn -1 0 0
v 1.000000 0.250000 1.000000
vt 0.750000 0.562500
v 1.000000 1.000000 1.000000
vt 0.750000 0.750000
v 1.000000 1.000000 0.000000
vt 0.500000 0.750000
v 1.000000 0.250000 0.000000
vt 0.500000 0.562500
f 45/45/12 46/46/12 47/47/12 48/48/12
